<svg width="211" height="273" viewBox="0 0 211 273" fill="none" xmlns="http://www.w3.org/2000/svg">
<path d="M10.9261 270.287L2.18555 72.4112C13.9088 63.879 27.6563 63.0118 44.6743 62.6994C68.1736 62.2682 84.6521 63.6117 102.702 78.6655C118.044 91.461 130.383 103.66 127.952 123.155C125.643 141.681 123.333 158.676 95.4179 164.857C68.1347 172.022 51.5306 161.116 34.2342 141.122C36.7407 162.711 41.3521 173.677 63.1265 188.466L110.957 199.392L154.417 270.287H105.615L60.213 213.173C51.2545 239.005 56.8981 262.366 63.1265 270.287H10.9261Z" fill="#292CA5" stroke="#625050" stroke-width="4.37027" stroke-linecap="round" stroke-linejoin="round"/>
<ellipse cx="78.6646" cy="117.998" rx="26.4644" ry="26.4644" fill="#FCFCFE"/>
<path d="M118.727 2.27226C142.465 0.674373 196.162 21.5026 202.248 36.506C186.942 44.0316 148.471 33.5553 142.598 57.5486C140.93 64.3638 140.838 68.7234 142.598 75.5152C147.102 92.8851 179.48 93.6517 191.565 106.916C208.504 125.509 209.434 135.421 207.424 160.493C205.701 181.985 196.621 194.684 179.988 208.403C146.375 236.128 106.29 225.821 69.0322 196.669C50.373 182.069 32.739 167.983 33.9917 140.577C56.4094 154.136 86.1254 172.571 107.879 155.394C121.195 144.88 127.266 133.002 126.331 116.062C125.324 97.82 113.122 87.2444 100.274 77.2085C87.426 67.1727 75.8944 59.0807 75.267 42.3333C74.4028 19.2667 96.7561 3.75116 118.727 2.27226Z" fill="#646DD2" stroke="#625050" stroke-width="4.37027" stroke-linejoin="round"/>
<path d="M165.324 26.7883C165.435 26.8441 165.563 26.8536 165.681 26.8147C165.799 26.7759 165.896 26.6918 165.952 26.5811C166.008 26.4704 166.018 26.342 165.979 26.2242C165.94 26.1065 165.856 26.009 165.745 25.9532C165.745 25.9532 165.745 25.9532 165.745 25.9532C165.592 25.8845 165.543 25.8852 165.468 25.8656C165.386 25.8479 165.345 25.8403 165.274 25.8272C165.149 25.8046 165.02 25.784 164.906 25.7666C164.662 25.7295 164.415 25.6957 164.185 25.6655C158.358 24.9592 152.541 24.4593 146.709 24.0114C146.699 24.0107 146.698 24.0107 146.697 24.0106C145.419 23.9431 144.128 23.9078 142.834 24.0385C142.834 24.0385 142.834 24.0385 142.834 24.0385C141.283 24.223 139.825 24.4443 138.311 24.5685C137.838 24.6107 137.361 24.649 136.885 24.6842C136.749 24.6942 136.623 24.7576 136.535 24.8606C136.446 24.9635 136.402 25.0976 136.412 25.2332C136.422 25.3688 136.486 25.4949 136.589 25.5834C136.692 25.672 136.826 25.7159 136.961 25.7056C136.961 25.7056 136.961 25.7056 136.961 25.7056C137.442 25.6689 137.924 25.6291 138.403 25.5853C139.922 25.458 141.471 25.2222 142.938 25.0422C142.938 25.0422 142.938 25.0422 142.938 25.0422C144.159 24.914 145.403 24.8785 146.647 24.9444C146.648 24.9445 146.649 24.9445 146.649 24.9445C152.453 25.3902 158.285 25.8922 164.064 26.5927C164.289 26.6224 164.532 26.6555 164.765 26.6911C164.874 26.7077 164.996 26.7272 165.107 26.7473C165.2 26.7607 165.388 26.8126 165.324 26.7883Z" fill="white"/>
<path d="M122.09 30.4861C122.246 30.47 122.389 30.3926 122.487 30.2709C122.586 30.1493 122.633 29.9934 122.616 29.8375C122.6 29.6816 122.523 29.5386 122.401 29.4398C122.28 29.341 122.124 29.2946 121.968 29.3107C121.968 29.3107 121.968 29.3107 121.968 29.3107C121.083 29.4166 120.316 29.6771 119.553 29.9467C115.898 31.3611 112.448 33.1919 109.537 35.9361C109.536 35.937 109.535 35.9379 109.534 35.9388C105.556 40.1214 105.536 46.2438 105.818 51.4039L105.971 51.9188C105.975 51.9271 105.979 51.9354 105.983 51.9437C107.836 55.8914 110.068 59.7562 113.482 62.9169L113.55 62.9753C113.55 62.9756 113.551 62.9759 113.551 62.9762C114.273 63.5846 115.426 64.1344 116.553 64.1277C117.568 64.138 118.496 63.785 119.285 63.2212C119.286 63.2201 119.288 63.219 119.289 63.2178C119.29 63.2165 119.29 63.2151 119.29 63.2136C119.29 63.2122 119.29 63.2108 119.289 63.2094C119.288 63.2082 119.287 63.207 119.285 63.206C119.285 63.206 119.285 63.206 119.285 63.206C118.5 62.6313 117.848 62.1018 117.362 61.6267C116.813 61.0938 116.469 60.6675 115.846 60.1602C115.845 60.16 115.845 60.1598 115.845 60.1595L115.913 60.2179C113.075 57.6079 110.686 54.1687 108.692 50.5756C108.687 50.568 108.683 50.5604 108.679 50.5528L108.832 51.0677C108.177 46.1745 106.882 40.4891 110.37 36.7738C110.371 36.773 110.372 36.7722 110.373 36.7714C113.033 34.2497 116.483 32.3913 119.955 31.0578C120.666 30.803 121.42 30.563 122.09 30.4861Z" fill="white"/>
<path d="M128.685 74.8446C128.443 74.4309 128.047 74.1301 127.584 74.0084C127.12 73.8867 126.628 73.9541 126.214 74.1958C125.8 74.4374 125.499 74.8336 125.378 75.297C125.256 75.7605 125.323 76.2533 125.565 76.6671C125.565 76.6671 125.565 76.6671 125.565 76.6671C125.915 77.265 126.281 77.8336 126.662 78.3983C131.98 85.8027 137.887 92.423 145.52 97.7686L145.442 97.7149C145.444 97.7163 145.445 97.7177 145.447 97.7191C147.193 98.9838 148.912 100.276 150.664 101.572L150.595 101.518C150.595 101.518 150.595 101.519 150.595 101.519C151.002 101.852 151.285 101.951 151.767 102.201C152.269 102.457 152.915 102.823 153.688 103.224C153.708 103.234 153.727 103.244 153.746 103.249C153.765 103.254 153.782 103.255 153.798 103.249C153.814 103.243 153.827 103.232 153.838 103.216C153.849 103.2 153.858 103.18 153.866 103.16C153.866 103.16 153.866 103.16 153.866 103.16C154.199 102.35 154.336 101.526 154.15 100.692C153.992 99.9131 153.425 99.1283 152.888 98.7085C152.888 98.7084 152.887 98.7082 152.887 98.708L152.818 98.6545C151.086 97.3729 149.334 96.0723 147.569 94.7944C147.568 94.793 147.566 94.7916 147.564 94.7901L147.485 94.7364C140.657 89.9914 134.568 83.2635 129.656 76.375C129.308 75.8595 128.98 75.3486 128.685 74.8446Z" fill="white"/>
<path d="M160.719 118.183C160.432 117.797 160.005 117.541 159.53 117.471C159.055 117.4 158.571 117.522 158.186 117.808C157.8 118.094 157.544 118.522 157.474 118.997C157.403 119.472 157.525 119.955 157.811 120.341C157.811 120.341 157.811 120.341 157.811 120.341C158.242 120.922 158.663 121.553 159.054 122.188C164.638 131.849 167.531 143.475 167.974 154.738L167.98 154.547C167.98 154.547 167.98 154.548 167.98 154.548C167.839 156.32 167.559 157.952 167.121 159.59C167.121 159.592 167.121 159.593 167.12 159.595C166.922 160.358 166.872 161.056 166.853 161.804C166.833 162.517 166.837 163.305 166.65 164.268C166.646 164.289 166.643 164.309 166.645 164.329C166.646 164.348 166.653 164.365 166.665 164.378C166.676 164.391 166.693 164.399 166.712 164.402C166.731 164.406 166.752 164.404 166.773 164.402C166.773 164.402 166.773 164.402 166.773 164.402C167.764 164.291 168.708 163.761 169.384 163.045C170.101 162.294 170.535 161.387 170.755 160.539C170.756 160.537 170.756 160.536 170.757 160.534C171.258 158.663 171.445 156.684 171.589 154.838C171.589 154.837 171.589 154.837 171.589 154.836L171.594 154.644C171.083 142.637 168.223 130.885 162.137 120.289C161.701 119.58 161.224 118.864 160.719 118.183Z" fill="white"/>
<path d="M155.866 184.211C156.252 183.864 156.484 183.378 156.512 182.86C156.54 182.342 156.361 181.835 156.014 181.449C155.667 181.063 155.182 180.831 154.664 180.803C154.146 180.775 153.638 180.955 153.252 181.301C153.252 181.301 153.252 181.301 153.252 181.301C152.739 181.762 152.165 182.229 151.589 182.667C144.973 187.629 136.819 190.622 128.523 191.855L128.828 191.834C128.813 191.833 128.798 191.833 128.783 191.833C123.793 191.797 118.813 191.148 113.769 190.162L113.78 190.165C113.777 190.164 113.775 190.164 113.773 190.163C113.742 190.157 113.711 190.152 113.68 190.148C112.848 190.04 111.95 190.699 111.164 190.929C111.083 190.95 110.993 191.013 110.922 191.084C110.85 191.157 110.801 191.23 110.781 191.311C110.761 191.392 110.77 191.48 110.8 191.578C110.831 191.674 110.88 191.772 110.943 191.828C110.943 191.828 110.943 191.828 110.943 191.828C111.662 192.405 112.297 193.274 112.975 193.491C113.001 193.499 113.027 193.506 113.053 193.512C113.055 193.513 113.057 193.513 113.058 193.514L113.069 193.516C118.116 194.693 123.394 195.707 128.745 195.744C128.761 195.744 128.777 195.744 128.793 195.745L129.098 195.723C137.947 194.398 146.641 191.256 153.957 185.78C154.602 185.288 155.248 184.765 155.866 184.211Z" fill="white"/>
<path d="M87.1467 183.221C87.3741 183.221 87.5921 183.131 87.7529 182.97C87.9137 182.809 88.004 182.591 88.004 182.364C88.004 182.136 87.9137 181.918 87.7529 181.758C87.5921 181.597 87.3741 181.506 87.1467 181.506C87.1467 181.506 87.1467 181.506 87.1467 181.506C86.5978 181.506 86.0503 181.497 85.5041 181.478C83.0845 181.388 80.6584 181.121 78.4011 180.439C78.4009 180.439 78.4006 180.439 78.4003 180.439L78.3581 180.427C74.8482 179.498 71.5258 177.55 68.3547 175.516C68.3543 175.516 68.354 175.515 68.3536 175.515L68.3888 175.54C65.4296 173.348 62.4869 170.98 59.4464 168.789C58.9943 168.461 58.5404 168.133 58.084 167.807C57.9659 167.722 57.8177 167.688 57.673 167.711C57.5282 167.733 57.3987 167.811 57.312 167.927C57.2253 168.044 57.1883 168.19 57.2082 168.335C57.2281 168.48 57.3032 168.612 57.418 168.701C57.418 168.701 57.418 168.701 57.418 168.701C57.8588 169.043 58.2961 169.386 58.7309 169.731C61.6627 172.036 64.4253 174.518 67.4354 176.826L67.4706 176.851C67.4709 176.851 67.4713 176.851 67.4717 176.851C70.6899 178.98 74.0322 181.045 77.9412 182.09L77.8989 182.078C77.8992 182.079 77.8995 182.079 77.8998 182.079C80.3848 182.827 82.9258 183.096 85.4435 183.192C86.0114 183.212 86.5789 183.221 87.1467 183.221Z" fill="white"/>
<path d="M81.4095 107.684C81.4251 107.2 81.2479 106.73 80.9169 106.377C80.586 106.024 80.1283 105.817 79.6446 105.801C79.1609 105.786 78.6908 105.963 78.3377 106.294C77.9847 106.625 77.7775 107.082 77.7619 107.566C77.7619 107.566 77.7619 107.566 77.7619 107.566C77.7455 108.078 77.729 108.587 77.7113 109.096C77.6534 110.777 77.5783 112.452 77.4914 114.137C77.491 114.145 77.4906 114.153 77.4902 114.161C77.3305 117.359 77.0965 120.527 77.0261 123.841C77.0258 123.863 77.0256 123.884 77.0253 123.905C77.0227 124.226 77.0161 124.548 77.0293 124.93C77.058 125.314 77.0267 125.726 77.3353 126.489C77.4903 126.863 77.8467 127.342 78.2555 127.619C78.6596 127.901 79.0079 128.011 79.2641 128.086C79.7795 128.225 80.0912 128.255 80.4003 128.3C80.4112 128.302 80.4221 128.303 80.433 128.305C82.6467 128.594 84.8348 128.863 87.0851 129.062C87.0876 129.062 87.0902 129.062 87.0927 129.062C87.9893 129.134 88.9533 128.24 89.8475 127.738C90.1955 127.545 90.5386 127.408 90.8688 127.423C90.871 127.423 90.8732 127.423 90.8754 127.424C90.9569 127.429 91.0496 127.436 91.1043 127.45C91.109 127.451 91.114 127.454 91.1035 127.448C91.0978 127.443 91.0838 127.443 91.0598 127.4C91.0307 127.351 91.0613 127.278 91.072 127.271C91.1111 127.233 91.0826 127.26 91.0713 127.262C91.0405 127.275 90.9998 127.288 90.9593 127.302C90.9249 127.313 90.8965 127.338 90.8803 127.37C90.8641 127.403 90.8615 127.44 90.8729 127.474C90.8844 127.509 90.909 127.537 90.9414 127.553C90.9738 127.57 91.0113 127.572 91.0457 127.561C91.0457 127.561 91.0457 127.561 91.0457 127.561C91.0869 127.547 91.1287 127.534 91.1774 127.514C91.2055 127.498 91.2189 127.509 91.2873 127.439C91.3046 127.424 91.3394 127.339 91.305 127.28C91.2761 127.228 91.2531 127.221 91.2377 127.21C91.2081 127.194 91.1929 127.191 91.1766 127.186C91.0628 127.159 90.9833 127.158 90.8922 127.151C90.8899 127.151 90.8876 127.151 90.8853 127.151C90.5435 127.131 90.2133 126.98 89.8865 126.758C89.0426 126.188 88.2723 125.179 87.4325 125.101C87.4301 125.101 87.4277 125.101 87.4253 125.101C85.2825 124.911 83.0857 124.675 80.924 124.42C80.9134 124.419 80.9028 124.417 80.8924 124.416C80.608 124.383 80.3202 124.347 80.2551 124.337C80.2237 124.336 80.2834 124.342 80.4412 124.454C80.6012 124.562 80.7664 124.797 80.7983 124.899C80.8624 125.11 80.7786 124.908 80.7665 124.702C80.7438 124.48 80.735 124.209 80.7355 123.928C80.7355 123.909 80.7355 123.89 80.7356 123.871C80.7747 120.781 80.9741 117.548 81.1348 114.348C81.1352 114.34 81.1356 114.332 81.136 114.325C81.2237 112.626 81.3 110.925 81.3585 109.223C81.3764 108.708 81.393 108.195 81.4095 107.684Z" fill="#625050"/>
</svg>
